<svg version="1.2" baseProfile="tiny-ps" xmlns="http://www.w3.org/2000/svg" viewBox="0 0 1779 1203" width="979" height="662">
	<title>illustrator photoshop logos-ai</title>
	<style>
		tspan { white-space:pre }
		.shp0 { fill: #001d36 } 
		.shp1 { fill: #4fc3f7 } 
		.shp2 { fill: #001e36 } 
	</style>
	<g id="Layer 1">
		<g id="&lt;Group&gt;">
			<g id="Layer 2 1 ">
				<g id="Surfaces">
					<g id="Drawing Surface">
						<g id="Outline no shadow">
							<path id="&lt;Path&gt;" class="shp0" d="M1048.5 130.5L1513.5 130.5C1584 130.5 1641 187.5 1641 258L1641 705C1641 775.5 1584 832.5 1513.5 832.5L1048.5 832.5C978 832.5 921 775.5 921 705L921 258C921 187.5 978 130.5 1048.5 130.5Z" />
						</g>
					</g>
				</g>
				<g id="Outlined Mnemonics Logos">
					<g id="Ai">
						<path id="&lt;Compound Path&gt;" fill-rule="evenodd" class="shp1" d="M1278.9 551.7L1167.3 551.7L1144.5 622.2C1143.9 624.9 1141.5 626.7 1138.8 626.4L1082.4 626.4C1079.1 626.4 1078.2 624.6 1079.1 621L1175.7 342.9C1176.6 339.9 1177.5 336.6 1178.7 333C1179.9 326.7 1180.5 320.1 1180.5 313.5C1180.2 312 1181.4 310.5 1182.9 310.2C1183.2 310.2 1183.5 310.2 1183.8 310.2L1260.6 310.2C1263 310.2 1264.2 311.1 1264.5 312.6L1374 621.6C1374.9 624.9 1374 626.4 1371 626.4L1308.3 626.4C1306.2 626.7 1304.1 625.2 1303.5 623.1L1278.9 551.7ZM1184.7 490.8L1260.9 490.8C1259.1 484.5 1256.7 477 1254 469.2C1251.3 461.1 1248.6 452.4 1245.9 443.4C1242.9 434.1 1240.2 425.1 1237.2 415.8C1234.2 406.5 1231.5 397.8 1229.1 389.1C1226.7 380.7 1224.6 372.9 1222.5 365.7L1221.9 365.7C1219.2 378.6 1215.9 391.5 1211.7 404.4C1207.2 418.8 1202.7 433.8 1197.9 448.8C1193.7 464.1 1189.2 478.2 1184.7 490.8Z" />
						<path id="&lt;Compound Path&gt;" class="shp1" d="M1439.4 361.5C1429.5 361.8 1419.9 357.9 1412.7 351C1405.8 343.5 1402.2 333.6 1402.5 323.4C1402.2 313.2 1406.1 303.6 1413.3 296.7C1420.5 289.8 1430.1 286.2 1440 286.2C1451.7 286.2 1460.7 289.8 1467.3 296.7C1473.9 303.9 1477.5 313.5 1477.2 323.4C1477.5 333.6 1473.9 343.5 1466.7 351C1459.8 358.2 1449.6 362.1 1439.4 361.5ZM1405.8 621.9L1405.8 390.9C1405.8 387.9 1407 386.7 1409.7 386.7L1469.1 386.7C1471.8 386.7 1473 388.2 1473 390.9L1473 621.9C1473 625.2 1471.8 626.7 1469.1 626.7L1410.3 626.7C1407.3 626.7 1405.8 624.9 1405.8 621.9Z" />
					</g>
				</g>
			</g>
			<g id="Layer 2 2 ">
				<g id="Surfaces 1 ">
					<g id="Photo Surface">
						<g id="Outline no shadow 1 ">
							<path id="&lt;Path&gt;" class="shp2" d="M256.5 130.5L721.5 130.5C792 130.5 849 187.5 849 258L849 705C849 775.5 792 832.5 721.5 832.5L256.5 832.5C186 832.5 129 775.5 129 705L129 258C129 187.5 186 130.5 256.5 130.5Z" />
						</g>
					</g>
				</g>
				<g id="Outlined Mnemonics Logos 1 ">
					<g id="Ps">
						<path id="&lt;Compound Path&gt;" fill-rule="evenodd" class="shp1" d="M291 622.8L291 314.1C291 312 291.9 310.8 294 310.8C299.1 310.8 303.9 310.8 310.8 310.5C318 310.2 325.5 310.2 333.6 309.9C341.7 309.6 350.4 309.6 359.7 309.3C369 309 378 309 387 309C411.6 309 432 312 448.8 318.3C463.8 323.4 477.6 331.8 489 342.9C498.6 352.5 506.1 364.2 510.9 377.1C515.4 389.7 517.8 402.6 517.8 416.1C517.8 441.9 511.8 463.2 499.8 480C487.8 496.8 471 509.4 451.5 516.6C431.1 524.1 408.6 526.8 384 526.8C376.8 526.8 372 526.8 369 526.5C366 526.2 361.8 526.2 356.1 526.2L356.1 622.5C356.4 624.6 354.9 626.4 352.8 626.7C352.5 626.7 352.2 626.7 351.6 626.7L294.6 626.7C292.2 626.7 291 625.5 291 622.8ZM356.4 368.7L356.4 469.5C360.6 469.8 364.5 470.1 368.1 470.1L384 470.1C395.7 470.1 407.4 468.3 418.5 464.7C428.1 462 436.5 456.3 443.1 448.8C449.4 441.3 452.4 431.1 452.4 417.9C452.7 408.6 450.3 399.3 445.5 391.2C440.4 383.4 433.2 377.4 424.5 374.1C413.4 369.6 401.4 367.8 389.1 368.1C381.3 368.1 374.4 368.1 368.7 368.4C362.7 368.1 358.5 368.4 356.4 368.7Z" />
						<path id="&lt;Path&gt;" class="shp1" d="M705 451.2C696 446.4 686.4 443.1 676.2 441C665.1 438.6 654 437.1 642.6 437.1C636.6 436.8 630.3 437.7 624.6 439.2C620.7 440.1 617.4 442.2 615.3 445.2C613.8 447.6 612.9 450.6 612.9 453.3C612.9 456 614.1 458.7 615.9 461.1C618.6 464.4 622.2 467.1 626.1 469.2C633 472.8 640.2 476.1 647.4 479.1C663.6 484.5 679.2 492 693.6 501C703.5 507.3 711.6 515.7 717.3 525.9C722.1 535.5 724.5 546 724.2 556.8C724.5 570.9 720.3 585 712.5 596.7C704.1 608.7 692.4 618 678.9 623.4C664.2 629.7 646.2 633 624.6 633C610.8 633 597.3 631.8 583.8 629.1C573.3 627.3 562.8 624 553.2 619.5C551.1 618.3 549.6 616.2 549.9 613.8L549.9 561.6C549.9 560.7 550.2 559.5 551.1 558.9C552 558.3 552.9 558.6 553.8 559.2C565.5 566.1 577.8 570.9 591 573.9C602.4 576.9 614.4 578.4 626.4 578.4C637.8 578.4 645.9 576.9 651.3 574.2C656.1 572.1 659.4 567 659.4 561.6C659.4 557.4 657 553.5 652.2 549.6C647.4 545.7 637.5 541.2 622.8 535.5C607.5 530.1 593.4 522.9 580.2 513.9C570.9 507.3 563.1 498.6 557.4 488.4C552.6 478.8 550.2 468.3 550.5 457.8C550.5 444.9 554.1 432.6 560.7 421.5C568.2 409.5 579.3 399.9 592.2 393.9C606.3 386.7 624 383.4 645.3 383.4C657.6 383.4 670.2 384.3 682.5 386.1C691.5 387.3 700.2 389.7 708.3 393C709.5 393.3 710.7 394.5 711.3 395.7C711.6 396.9 711.9 398.1 711.9 399.3L711.9 448.2C711.9 449.4 711.3 450.6 710.4 451.2C707.7 451.8 706.2 451.8 705 451.2Z" />
					</g>
				</g>
			</g>
		</g>
		<g id="&lt;Group&gt;">
			<g id="&lt;Group&gt;">
				<g id="&lt;Group&gt;" style="opacity: 0.4;mix-blend-mode: multiply">
				</g>
				<g id="&lt;Group&gt;">
					<g id="&lt;Group&gt;">
					</g>
				</g>
			</g>
		</g>
	</g>
</svg>